<svg xmlns="http://www.w3.org/2000/svg" viewBox="0 0 24 24"><path fill="#00bcd4" d="M23.5 24a.5.5 0 0 1-.408-.21c-.315-.445-.915-.879-1.552-1.338-1.04-.75-2.218-1.6-2.525-2.83a.497.497 0 0 1 .403-.615c.938-.156 2.298-.52 3.15-.758-.872-.85-2.733-2.43-5.229-3.275a.5.5 0 0 1-.28-.237c-.199-.37-.42-.877-.675-1.463-1.516-3.478-4.339-9.953-11.938-10.777a.5.5 0 0 1-.229-.084C3.226 1.733 1.905 1 1.5 1 1 1 1 1 1 1.5c.017.235.572 1 .904 1.456C2.584 3.89 3 4.488 3 5c0 .664 1.056 3.458 1.827 4.121a.5.5 0 0 1 .13.582c-.078.175-.156.339-.231.499C4.32 11.056 4 11.73 4 13.5c0 1.853.779 3 1.5 3 .238-.164.5-1.627.5-3a.5.5 0 0 1 .975-.155c.013.04 1.327 3.991 3.814 5.746a.5.5 0 0 1-.578.818C8.643 18.802 7.524 16.99 6.84 15.6 6.655 16.625 6.271 17.5 5.5 17.5c-1.241 0-2.5-1.374-2.5-4 0-1.994.4-2.836.823-3.727l.082-.172C2.949 8.468 2 5.818 2 5c-.017-.235-.572-1-.904-1.456C.416 2.61 0 2.012 0 1.5 0 .449.449 0 1.5 0c.847 0 2.535 1.082 3.18 1.517 8.082.945 11.145 7.972 12.62 11.358.21.48.39.895.552 1.218 3.664 1.307 5.934 3.97 6.03 4.085a.5.5 0 0 1-.239.801c-.09.027-1.965.588-3.447.897.39.655 1.17 1.218 1.93 1.765.705.51 1.371.99 1.782 1.57A.5.5 0 0 1 23.5 24z"/><path fill="#00bcd4" d="M6 5.5a.5.5 0 0 1-.5-.5.5.5 0 0 0-.5-.5.5.5 0 1 1 0-1c.827 0 1.5.673 1.5 1.5a.5.5 0 0 1-.5.5z"/><linearGradient id="a" x1="-2.253" x2="26.13" y1="5.807" y2="19.043" gradientUnits="userSpaceOnUse"><stop offset="0" stop-color="#FFF" stop-opacity=".2"/><stop offset="1" stop-color="#FFF" stop-opacity="0"/></linearGradient><path fill="url(#a)" d="M23.908 23.21c-.411-.579-1.077-1.06-1.782-1.569-.76-.547-1.54-1.11-1.93-1.765 1.482-.31 3.357-.87 3.447-.897a.5.5 0 0 0 .24-.8c-.097-.116-2.367-2.78-6.031-4.086-.162-.323-.342-.739-.551-1.218C15.825 9.489 12.76 2.462 4.679 1.517 4.035 1.082 2.347 0 1.5 0 .45 0 0 .449 0 1.5c0 .512.417 1.11 1.097 2.044C1.428 4 1.983 4.764 2 5c0 .818.95 3.468 1.904 4.601l-.082.172C3.4 10.664 3 11.506 3 13.5c0 2.626 1.258 4 2.5 4 .77 0 1.155-.875 1.34-1.9.684 1.39 1.803 3.202 3.371 4.309a.5.5 0 0 0 .577-.817c-2.486-1.756-3.8-5.707-3.813-5.747A.5.5 0 0 0 6 13.5c0 1.373-.262 2.836-.5 3-.721 0-1.5-1.147-1.5-3 0-1.769.32-2.444.726-3.298.075-.16.153-.324.231-.499a.5.5 0 0 0-.13-.582C4.057 8.458 3 5.664 3 5c0-.512-.417-1.11-1.096-2.044C1.572 2.5 1.017 1.736 1 1.5 1 1 1 1 1.5 1c.405 0 1.726.733 2.717 1.413a.5.5 0 0 0 .23.084c7.598.824 10.421 7.299 11.937 10.777.256.586.476 1.093.675 1.463a.5.5 0 0 0 .28.237c2.496.845 4.357 2.426 5.229 3.275-.852.238-2.212.602-3.15.758a.5.5 0 0 0-.403.614c.307 1.23 1.486 2.081 2.525 2.831.637.46 1.237.893 1.552 1.337a.5.5 0 1 0 .816-.578zM4.5 4a.5.5 0 0 0 .5.5.5.5 0 0 1 .5.5.5.5 0 1 0 1 0c0-.827-.673-1.5-1.5-1.5a.5.5 0 0 0-.5.5z"/></svg>